<svg width="19" height="19" viewBox="0 0 19 19" fill="none" xmlns="http://www.w3.org/2000/svg">
<path fill-rule="evenodd" clip-rule="evenodd" d="M8.30395 2.3125C7.31277 2.31258 6.33599 2.5497 5.45508 3.00406C4.57418 3.45843 3.81471 4.11687 3.24003 4.92444C2.66535 5.73202 2.29213 6.66532 2.1515 7.64647C2.01088 8.62762 2.10692 9.62818 2.43163 10.5647C2.75634 11.5011 3.30029 12.3464 4.01811 13.0299C4.73592 13.7134 5.60679 14.2153 6.55804 14.4938C7.50929 14.7723 8.51335 14.8193 9.48644 14.6308C10.4595 14.4423 11.3735 14.0239 12.1519 13.4104L14.8226 16.081C14.9605 16.2142 15.1452 16.2879 15.3369 16.2862C15.5287 16.2846 15.7121 16.2077 15.8477 16.0721C15.9833 15.9365 16.0602 15.7531 16.0618 15.5613C16.0635 15.3696 15.9898 15.1849 15.8566 15.047L13.186 12.3763C13.9085 11.4598 14.3583 10.3583 14.4841 9.19801C14.6098 8.03771 14.4063 6.86545 13.8969 5.81539C13.3875 4.76533 12.5928 3.87989 11.6037 3.2604C10.6146 2.64092 9.47105 2.31242 8.30395 2.3125ZM3.55065 8.52836C3.55065 7.2677 4.05144 6.05868 4.94286 5.16727C5.83428 4.27585 7.0433 3.77506 8.30395 3.77506C9.56461 3.77506 10.7736 4.27585 11.665 5.16727C12.5565 6.05868 13.0573 7.2677 13.0573 8.52836C13.0573 9.78901 12.5565 10.998 11.665 11.8895C10.7736 12.7809 9.56461 13.2817 8.30395 13.2817C7.0433 13.2817 5.83428 12.7809 4.94286 11.8895C4.05144 10.998 3.55065 9.78901 3.55065 8.52836Z" fill="white"/>
</svg>
